<?xml version="1.0" encoding="UTF-8"?>
<svg width="150px" height="105px" viewBox="0 0 150 105" version="1.1" xmlns="http://www.w3.org/2000/svg" xmlns:xlink="http://www.w3.org/1999/xlink">
    <!-- Generator: Sketch 51.2 (57519) - http://www.bohemiancoding.com/sketch -->
    <title>Group 4</title>
    <desc>Created with Sketch.</desc>
    <defs></defs>
    <g id="UI" stroke="none" stroke-width="1" fill="none" fill-rule="evenodd">
        <g id="Home-_UI" transform="translate(-951.000000, -1527.000000)" fill-rule="nonzero">
            <g id="locations" transform="translate(120.000000, 734.000000)">
                <g id="1" transform="translate(612.000000, 625.000000)">
                    <g id="Group-4" transform="translate(219.000000, 168.000000)">
                        <g id="picture">
                            <path d="M108.950195,81.25 L117.125244,102.5 L137.5,102.5 C138.061523,102.501221 138.621826,102.451172 139.174805,102.349853 L120,52.5 L108.950195,81.25 Z" id="Shape" fill="#E3E3E3"></path>
                            <path d="M60,40 C60,45.5224609 55.5224609,50 50,50 C44.4775391,50 40,45.5224609 40,40 C40,34.4775391 44.4775391,30 50,30 C55.5224609,30 60,34.4775391 60,40 Z" id="Shape" fill="#E3E3E3"></path>
                            <polygon id="Shape" fill="#E3E3E3" points="72.5 67.5 59.4628906 101.424561 60 102.5 85.9497069 102.5 79.4250488 85.5004881"></polygon>
                            <polygon id="Shape" fill="#E3E3E3" points="50 82.5 40 102.5 59.0502931 102.5 59.4628906 101.424561"></polygon>
                            <polygon id="Shape" fill="#A5D0F2" points="59.0502931 102.5 60 102.5 59.4628906 101.424561"></polygon>
                            <g id="Group" fill="#E3E3E3">
                                <path d="M137.5,0 L12.5,0 C5.59936531,0.0085449375 0.0085449375,5.59936531 0,12.5 L0,92.5 C0.0085449375,99.4006347 5.59936531,104.991455 12.5,105 C12.5,105 138.922119,104.940186 139.592285,104.818115 C145.60791,103.811035 150.010986,98.5986328 150,92.5 L150,12.5 C149.991455,5.59936531 144.400635,0.0085449375 137.5,0 Z M44.04541,100 L50,88.0895997 L55.95459,100 L44.04541,100 Z M72.8747559,100 L62.6904297,100 L72.5,74.4677734 L82.3120119,100 L72.8747559,100 Z M118.842773,100 L111.627197,81.25 L120,59.4653319 L135.5896,100 L118.842773,100 Z M113.482666,100 L87.6672362,100 L82.1020506,85.5004881 L95,51.9628906 L113.482666,100 Z" id="Shape"></path>
                            </g>
                            <path d="M145,92.5 C144.995117,95.4028319 143.303222,98.03833 140.665283,99.2504881 L122.335205,51.6027831 C121.965332,50.6347656 121.036377,49.9951172 120,49.9951172 C118.963623,49.9951172 118.034668,50.6347656 117.664795,51.6027831 L108.947754,74.2846681 L97.335205,44.1027831 C96.9653319,43.1347656 96.0363769,42.4951172 95,42.4951172 C93.9636231,42.4951172 93.0346681,43.1347656 92.664795,44.1027831 L79.4152831,78.5351562 L74.8278809,66.6027831 C74.4567872,65.6347656 73.5290528,64.9951172 72.4926756,64.9951172 C71.4562987,64.9951172 70.5273437,65.6347656 70.1574706,66.6027831 L59.157715,95.2319337 L52.2497559,81.3830566 C51.779785,80.5944825 50.9301756,80.1110841 50.0122069,80.1110841 C49.0954591,80.1110841 48.2446287,80.5944825 47.7746581,81.3830566 L38.45459,100 L12.5,100 C8.35815438,100 5,96.6418456 5,92.5 L5,12.5 C5,8.35815437 8.35815438,5 12.5,5 L137.5,5 C141.641846,5 145,8.35815437 145,12.5 L145,92.5 Z" id="Path" fill="#FFFFFF"></path>
                            <path d="M50,27.5 C43.0969237,27.5 37.5,33.0969237 37.5,40 C37.5,46.9030762 43.0969237,52.5 50,52.5 C56.9030762,52.5 62.5,46.9030762 62.5,40 C62.491455,33.0993653 56.9006347,27.508545 50,27.5 Z M50,47.5 C45.8581544,47.5 42.5,44.1418456 42.5,40 C42.5,35.8581544 45.8581544,32.5 50,32.5 C54.1418456,32.5 57.5,35.8581544 57.5,40 C57.5,44.1418456 54.1418456,47.5 50,47.5 Z M50,25 C48.6193847,25 47.5,23.8806153 47.5,22.5 L47.5,20 C47.5,18.6193847 48.6193847,17.5 50,17.5 C51.3806153,17.5 52.5,18.6193847 52.5,20 L52.5,22.5 C52.5,23.8806153 51.3806153,25 50,25 Z M35.8569337,29.39209 L34.0905762,27.6245119 C33.14209,26.6442872 33.1555175,25.0842284 34.1198731,24.1198731 C35.0842284,23.1567381 36.6442872,23.14209 37.6245119,24.0905763 L39.39209,25.8569338 C40.3393556,26.8383788 40.3259278,28.3972169 39.3615722,29.3615722 C38.3972169,30.3259278 36.8383787,30.3393556 35.8569337,29.39209 Z M35,40 C35,41.3806153 33.8806153,42.5 32.5,42.5 L30,42.5 C28.6193847,42.5 27.5,41.3806153 27.5,40 C27.5,38.6193847 28.6193847,37.5 30,37.5 L32.5,37.5 C33.8806153,37.5 35,38.6193847 35,40 Z M35.8569337,50.60791 C36.4855956,49.9572753 37.4145506,49.6972656 38.2885744,49.9255372 C39.1625975,50.1550294 39.8449706,50.8374025 40.0744628,51.7114256 C40.3027344,52.5854494 40.0427247,53.5144044 39.39209,54.1430663 L37.6245119,55.9094238 C36.9970703,56.5600587 36.0681153,56.8200684 35.1940919,56.5917969 C34.3200684,56.3635253 33.6364747,55.6799316 33.4082031,54.8059081 C33.1799316,53.9318847 33.4399412,53.0029297 34.0905762,52.3754881 L35.8569337,50.60791 Z M50,55 C51.3806153,55 52.5,56.1193847 52.5,57.5 L52.5,60 C52.5,61.3806153 51.3806153,62.5 50,62.5 C48.6193847,62.5 47.5,61.3806153 47.5,60 L47.5,57.5 C47.5,56.1193847 48.6193847,55 50,55 Z M64.1430663,50.60791 L65.9094238,52.3754881 C66.85791,53.3557128 66.8444825,54.9157716 65.8801269,55.8801269 C64.9157716,56.8444825 63.3557128,56.85791 62.3754881,55.9094238 L60.60791,54.1430663 C59.9572753,53.5144044 59.6972656,52.5854494 59.9255372,51.7114256 C60.1550294,50.8374025 60.8374025,50.1550294 61.7114256,49.9255372 C62.5854494,49.6972656 63.5144044,49.9572753 64.1430663,50.60791 Z M70,37.5 C71.3806153,37.5 72.5,38.6193847 72.5,40 C72.5,41.3806153 71.3806153,42.5 70,42.5 L67.5,42.5 C66.1193847,42.5 65,41.3806153 65,40 C65,38.6193847 66.1193847,37.5 67.5,37.5 L70,37.5 Z M62.3754881,30.1245119 C61.3635253,30.1245119 60.4528809,29.5153809 60.0659181,28.5815431 C59.678955,27.647705 59.8925781,26.5722656 60.60791,25.8569338 L62.3754881,24.0905763 C63.3557128,23.14209 64.9157716,23.1567381 65.8801269,24.1198731 C66.8444825,25.0842284 66.85791,26.6442872 65.9094238,27.6245119 L64.1430663,29.39209 C63.6743163,29.86084 63.03833,30.1245119 62.3754881,30.1245119 Z" id="Combined-Shape" fill="#E3E3E3"></path>
                        </g>
                    </g>
                </g>
            </g>
        </g>
    </g>
</svg>